
<svg xmlns="http://www.w3.org/2000/svg" version="1.1" xmlns:xlink="http://www.w3.org/1999/xlink" preserveAspectRatio="none" x="0px" y="0px" width="1024px" height="1024px" viewBox="0 0 1024 1024">
<defs>
<g id="Layer0_0_MEMBER_0_MEMBER_0_MEMBER_0_FILL">
<path fill="#E2CFC1" stroke="none" d="
M 215.1 358.4
Q 188.1 358.4 168.8 359.25 149.65 360.1 149.65 361.25 149.65 362.4 168.8 363.25 188.1 364.1 215.1 364.1 242.1 364.1 261.35 363.25 280.5 362.4 280.5 361.25 280.5 360.1 261.35 359.25 242.1 358.4 215.1 358.4 Z"/>
</g>

<g id="Layer0_0_MEMBER_0_MEMBER_1_MEMBER_0_FILL">
<path fill="#95C3E8" stroke="none" d="
M 267.6 292.65
Q 267.6 290.7 266.25 289.35 264.85 287.95 262.9 287.95
L 173.25 287.95
Q 171.35 287.95 169.95 289.35 168.6 290.7 168.6 292.65
L 168.6 356.2
Q 168.6 358.15 169.95 359.55 171.35 360.9 173.25 360.9
L 262.9 360.9
Q 264.85 360.9 266.25 359.55 267.6 358.15 267.6 356.2
L 267.6 292.65 Z"/>
</g>

<g id="Layer0_0_MEMBER_0_MEMBER_2_MEMBER_0_FILL">
<path fill="#2866C9" stroke="none" d="
M 266.25 289.35
Q 264.85 287.95 262.9 287.95
L 173.25 287.95
Q 171.35 287.95 169.95 289.35 168.6 290.7 168.6 292.65
L 168.6 296.95 267.6 296.95 267.6 292.65
Q 267.6 290.7 266.25 289.35 Z"/>
</g>

<g id="Layer0_0_MEMBER_0_MEMBER_3_MEMBER_0_FILL">
<path fill="#B9DDFF" stroke="none" d="
M 264.6 292.65
Q 264.6 290.7 263.25 289.35 261.85 287.95 259.9 287.95
L 170.25 287.95
Q 168.35 287.95 166.95 289.35 165.6 290.7 165.6 292.65
L 165.6 356.2
Q 165.6 358.15 166.95 359.55 168.35 360.9 170.25 360.9
L 259.9 360.9
Q 261.85 360.9 263.25 359.55 264.6 358.15 264.6 356.2
L 264.6 292.65 Z"/>
</g>

<g id="Layer0_0_MEMBER_0_MEMBER_4_MEMBER_0_FILL">
<path fill="#FFFFFF" stroke="none" d="
M 184.1 295.75
L 182.65 295.75 182.65 354.95 184.1 354.95 184.1 295.75 Z"/>
</g>

<g id="Layer0_0_MEMBER_0_MEMBER_5_MEMBER_0_FILL">
<path fill="#FFFFFF" stroke="none" d="
M 206.3 295.75
L 204.85 295.75 204.85 354.95 206.3 354.95 206.3 295.75 Z"/>
</g>

<g id="Layer0_0_MEMBER_0_MEMBER_6_MEMBER_0_FILL">
<path fill="#FFFFFF" stroke="none" d="
M 226.55 295.75
L 225.1 295.75 225.1 354.95 226.55 354.95 226.55 295.75 Z"/>
</g>

<g id="Layer0_0_MEMBER_0_MEMBER_7_MEMBER_0_FILL">
<path fill="#FFFFFF" stroke="none" d="
M 248.8 295.75
L 247.35 295.75 247.35 354.95 248.8 354.95 248.8 295.75 Z"/>
</g>

<g id="Layer0_0_MEMBER_0_MEMBER_8_MEMBER_0_FILL">
<path fill="#FFFFFF" stroke="none" d="
M 170.3 314
L 170.3 315.45 258.45 315.45 258.45 314 170.3 314 Z"/>
</g>

<g id="Layer0_0_MEMBER_0_MEMBER_9_MEMBER_0_FILL">
<path fill="#FFFFFF" stroke="none" d="
M 170.3 331.85
L 170.3 333.3 258.45 333.3 258.45 331.85 170.3 331.85 Z"/>
</g>

<g id="Layer0_0_MEMBER_0_MEMBER_10_MEMBER_0_FILL">
<path fill="#FFFFFF" stroke="none" d="
M 170.3 348.3
L 170.3 349.75 258.45 349.75 258.45 348.3 170.3 348.3 Z"/>
</g>

<g id="Layer0_0_MEMBER_0_MEMBER_11_MEMBER_0_FILL">
<path fill="#FFFFFF" stroke="none" d="
M 180.45 303
L 180.45 299.2 168.85 299.2 168.85 303 180.45 303 Z"/>
</g>

<g id="Layer0_0_MEMBER_0_MEMBER_12_MEMBER_0_FILL">
<path fill="#FFFFFF" stroke="none" d="
M 180.45 306.35
L 180.45 304.25 172.5 304.25 172.5 306.35 180.45 306.35 Z"/>
</g>

<g id="Layer0_0_MEMBER_0_MEMBER_13_MEMBER_0_FILL">
<path fill="#FFFFFF" stroke="none" d="
M 233.55 317.4
L 233.55 321.15 245.15 321.15 245.15 317.4 233.55 317.4 Z"/>
</g>

<g id="Layer0_0_MEMBER_0_MEMBER_14_MEMBER_0_FILL">
<path fill="#FFFFFF" stroke="none" d="
M 222.7 339.05
L 222.7 335.3 208.6 335.3 208.6 339.05 222.7 339.05 Z"/>
</g>

<g id="Layer0_0_MEMBER_0_MEMBER_15_MEMBER_0_FILL">
<path fill="#FFFFFF" stroke="none" d="
M 222.7 344.85
L 222.7 341.1 208.6 341.1 208.6 344.85 222.7 344.85 Z"/>
</g>

<g id="Layer0_0_MEMBER_0_MEMBER_16_MEMBER_0_FILL">
<path fill="#FFFFFF" stroke="none" d="
M 237.2 322.4
L 237.2 324.5 245.15 324.5 245.15 322.4 237.2 322.4 Z"/>
</g>

<g id="Layer0_0_MEMBER_0_MEMBER_18_MEMBER_0_FILL">
<path fill="#E65895" stroke="none" d="
M 201.2 345.45
L 201.2 335.3 185.55 335.3 185.55 345.45 201.2 345.45 Z"/>
</g>

<g id="Layer0_0_MEMBER_0_MEMBER_19_MEMBER_0_FILL">
<path fill="#3572E7" stroke="none" d="
M 259.9 345.45
L 259.9 335.3 251.35 335.3 251.35 345.45 259.9 345.45 Z"/>
</g>

<g id="Layer0_0_MEMBER_0_MEMBER_20_MEMBER_0_FILL">
<path fill="#3572E7" stroke="none" d="
M 263.25 289.35
Q 261.85 287.95 259.9 287.95
L 170.25 287.95
Q 168.35 287.95 166.95 289.35 165.6 290.7 165.6 292.65
L 165.6 296.95 264.6 296.95 264.6 292.65
Q 264.6 290.7 263.25 289.35 Z"/>
</g>

<g id="Layer0_0_MEMBER_0_MEMBER_21_MEMBER_0_FILL">
<path fill="#FFFFFF" stroke="none" d="
M 174.65 292.8
Q 174.65 291.9 174.05 291.3 173.4 290.65 172.5 290.65 171.6 290.65 170.95 291.3 170.3 291.9 170.3 292.8 170.3 293.7 170.95 294.35 171.6 295 172.5 295 173.4 295 174.05 294.35 174.65 293.7 174.65 292.8 Z"/>
</g>

<g id="Layer0_0_MEMBER_0_MEMBER_22_MEMBER_0_FILL">
<path fill="#19164F" stroke="none" d="
M 181.4 292.8
Q 181.4 291.9 180.8 291.3 180.15 290.65 179.25 290.65 178.35 290.65 177.7 291.3 177.05 291.9 177.05 292.8 177.05 293.7 177.7 294.35 178.35 295 179.25 295 180.15 295 180.8 294.35 181.4 293.7 181.4 292.8 Z"/>
</g>

<g id="Layer0_0_MEMBER_0_MEMBER_23_MEMBER_0_FILL">
<path fill="#F57B61" stroke="none" d="
M 188.2 292.8
Q 188.2 291.9 187.55 291.3 186.9 290.65 186 290.65 185.1 290.65 184.5 291.3 183.85 291.9 183.85 292.8 183.85 293.7 184.5 294.35 185.1 295 186 295 186.9 295 187.55 294.35 188.2 293.7 188.2 292.8 Z"/>
</g>

<g id="Layer0_0_MEMBER_0_MEMBER_24_FILL">
<path fill="#FFFFFF" stroke="none" d="
M 222.7 310.8
L 222.7 299.2 208.45 299.2 208.45 310.8 222.7 310.8 Z"/>
</g>

<g id="Layer0_0_MEMBER_1_MEMBER_0_MEMBER_0_MEMBER_0_MEMBER_0_MEMBER_0_FILL">
<path fill="#F7A66F" stroke="none" d="
M 211.35 301.7
L 205.05 308.45 197.65 305.7
Q 197.05 305.4 196.4 305.35 195.05 305.2 194.65 306.25
L 195.4 307.1
Q 196.35 308.1 197.4 308.55
L 205.5 312.1 212.15 302.3 211.35 301.7 Z"/>
</g>

<g id="Layer0_0_MEMBER_1_MEMBER_0_MEMBER_1_MEMBER_0_MEMBER_0_MEMBER_0_FILL">
<path fill="#F7A66F" stroke="none" d="
M 211.25 301.9
L 211.95 302.35
Q 213.35 300.95 213.05 300.3 212.85 299.8 212.3 299.95 212 300 211.6 300.95 211.4 301.45 211.25 301.9 Z"/>
</g>

<g id="Layer0_0_MEMBER_1_MEMBER_1_MEMBER_0_MEMBER_0_MEMBER_0_FILL">
<path fill="#31DCEE" stroke="none" d="
M 193.6 361.25
L 193.2 363.1 196.35 364.1 194.6 362.7 194.35 362.25 194.25 361.3 193.6 361.25 Z"/>
</g>

<g id="Layer0_0_MEMBER_1_MEMBER_2_MEMBER_0_MEMBER_0_MEMBER_0_FILL">
<path fill="#31DCEE" stroke="none" d="
M 191.35 359.55
L 189.95 360.85 192.05 363.45 191.35 361.3 191.4 360.8 191.85 359.95 191.35 359.55 Z"/>
</g>

<g id="Layer0_0_MEMBER_1_MEMBER_3_MEMBER_0_MEMBER_0_FILL">
<path fill="#282E76" stroke="none" d="
M 197.9 326.3
L 190.55 326.3 192.3 345.9 192.95 362 194.5 362 197.9 326.3 Z"/>
</g>

<g id="Layer0_0_MEMBER_1_MEMBER_4_MEMBER_0_MEMBER_0_MEMBER_0_FILL">
<path fill="#19164F" stroke="none" d="
M 204 344.15
L 204.5 326.3 195.9 326.3 195.9 327.35 198.8 345 190.55 359.75 192.05 360.5 204 344.15 Z"/>
</g>

<g id="Layer0_0_MEMBER_1_MEMBER_5_MEMBER_0_MEMBER_0_MEMBER_0_FILL">
<path fill="#3572E7" stroke="none" d="
M 203 316.55
L 203 306.75 197.45 305.6 190.55 306.25 190.55 326.3 204.5 326.3 203 316.55 Z"/>
</g>

<g id="Layer0_0_MEMBER_1_MEMBER_6_MEMBER_0_MEMBER_0_MEMBER_0_MEMBER_0_MEMBER_0_FILL">
<path fill="#2E3B57" stroke="none" d="
M 196.5 299.75
L 196.35 300.45
Q 195.65 302.25 197.1 304.65 197.85 305.9 198.75 306.75 198.2 305.55 198.5 304.4 198.9 302.85 198.75 301.6 198.6 300.25 197.55 299.85
L 196.5 299.75 Z"/>
</g>

<g id="Layer0_0_MEMBER_1_MEMBER_6_MEMBER_1_MEMBER_0_MEMBER_0_MEMBER_0_MEMBER_0_MEMBER_0_FILL">
<path fill="#F7A66F" stroke="none" d="
M 197.4 303
L 195.8 303 195.2 305.3
Q 198.1 307.4 197.8 306.25
L 197.4 303 Z"/>
</g>

<g id="Layer0_0_MEMBER_1_MEMBER_6_MEMBER_1_MEMBER_1_MEMBER_0_MEMBER_0_MEMBER_0_MEMBER_0_FILL">
<path fill="#F7A66F" stroke="none" d="
M 195.8 300.3
Q 195.3 301.8 195.5 302.3 196 303.4 196.05 303.5 196.45 304.2 196.9 304.35 197.35 304.55 197.7 304.15 197.95 303.7 198 303.55 198.2 303.1 198.15 301.9 198.1 300.4 197.35 300 196.75 299.65 196.3 299.8 195.95 299.95 195.8 300.3 Z"/>
</g>

<g id="Layer0_0_MEMBER_1_MEMBER_6_MEMBER_1_MEMBER_2_MEMBER_0_MEMBER_0_MEMBER_0_MEMBER_0_FILL">
<path fill="#2E3B57" stroke="none" d="
M 196.65 300.45
L 196.5 299.75
Q 196.2 299.7 195.85 299.75 195.1 299.85 194.65 300.3 193.65 301.25 193.9 302.85 194.25 304.85 196.65 306.9 196.15 305.5 195.9 304 195.4 301 196.65 300.45 Z"/>
</g>

<g id="Layer0_0_MEMBER_1_MEMBER_6_MEMBER_1_MEMBER_3_MEMBER_0_MEMBER_0_MEMBER_0_MEMBER_0_FILL">
<path fill="#2E3B57" stroke="none" d="
M 196.95 300.55
Q 197 301.25 198.3 301.7 198.5 299.35 196.5 299.65 195.3 299.8 195.15 301.05 195.1 301.65 195.3 302.25 196.25 302 196.95 300.55 Z"/>
</g>

<g id="Layer0_0_MEMBER_1_MEMBER_7_MEMBER_0_MEMBER_0_MEMBER_0_MEMBER_0_MEMBER_0_FILL">
<path fill="#F7A66F" stroke="none" d="
M 209.25 311.65
L 202.55 307.45
Q 202.05 307.05 201.4 306.85 200.1 306.45 199.5 307.4
L 200.05 308.4
Q 200.8 309.55 201.7 310.25
L 208.95 315.35 217.4 307.05 216.75 306.3 209.25 311.65 Z"/>
</g>

<g id="Layer0_0_MEMBER_1_MEMBER_7_MEMBER_0_MEMBER_1_MEMBER_0_MEMBER_0_MEMBER_0_FILL">
<path fill="#F7A66F" stroke="none" d="
M 216.65 306.5
L 217.2 307.05
Q 218.85 305.95 218.75 305.25 218.65 304.75 218.05 304.8 217.75 304.8 217.2 305.65 216.9 306.1 216.65 306.5 Z"/>
</g>

<g id="Layer0_0_MEMBER_1_MEMBER_7_MEMBER_1_MEMBER_0_MEMBER_0_MEMBER_0_FILL">
<path fill="#FFC7CA" stroke="none" d="
M 202.75 311.15
L 203.85 308.05
Q 203.15 307.4 202.2 306.9 200.3 305.95 199.2 306.75
L 199.05 308.1
Q 199.55 309.7 202.75 311.15 Z"/>
</g>
</defs>

<g transform="matrix( 7, 0, 0, 7, -993.5,-1770.15) ">
<use xlink:href="#Layer0_0_MEMBER_0_MEMBER_0_MEMBER_0_FILL"/>
</g>

<g transform="matrix( 7, 0, 0, 7, -993.5,-1770.15) ">
<use xlink:href="#Layer0_0_MEMBER_0_MEMBER_1_MEMBER_0_FILL"/>
</g>

<g transform="matrix( 7, 0, 0, 7, -993.5,-1770.15) ">
<use xlink:href="#Layer0_0_MEMBER_0_MEMBER_2_MEMBER_0_FILL"/>
</g>

<g transform="matrix( 7, 0, 0, 7, -993.5,-1770.15) ">
<use xlink:href="#Layer0_0_MEMBER_0_MEMBER_3_MEMBER_0_FILL"/>
</g>

<g transform="matrix( 7, 0, 0, 7, -993.5,-1770.15) ">
<use xlink:href="#Layer0_0_MEMBER_0_MEMBER_4_MEMBER_0_FILL"/>
</g>

<g transform="matrix( 7, 0, 0, 7, -993.5,-1770.15) ">
<use xlink:href="#Layer0_0_MEMBER_0_MEMBER_5_MEMBER_0_FILL"/>
</g>

<g transform="matrix( 7, 0, 0, 7, -993.5,-1770.15) ">
<use xlink:href="#Layer0_0_MEMBER_0_MEMBER_6_MEMBER_0_FILL"/>
</g>

<g transform="matrix( 7, 0, 0, 7, -993.5,-1770.15) ">
<use xlink:href="#Layer0_0_MEMBER_0_MEMBER_7_MEMBER_0_FILL"/>
</g>

<g transform="matrix( 7, 0, 0, 7, -993.5,-1770.15) ">
<use xlink:href="#Layer0_0_MEMBER_0_MEMBER_8_MEMBER_0_FILL"/>
</g>

<g transform="matrix( 7, 0, 0, 7, -993.5,-1770.15) ">
<use xlink:href="#Layer0_0_MEMBER_0_MEMBER_9_MEMBER_0_FILL"/>
</g>

<g transform="matrix( 7, 0, 0, 7, -993.5,-1770.15) ">
<use xlink:href="#Layer0_0_MEMBER_0_MEMBER_10_MEMBER_0_FILL"/>
</g>

<g transform="matrix( 7, 0, 0, 7, -993.5,-1770.15) ">
<use xlink:href="#Layer0_0_MEMBER_0_MEMBER_11_MEMBER_0_FILL"/>
</g>

<g transform="matrix( 7, 0, 0, 7, -993.5,-1770.15) ">
<use xlink:href="#Layer0_0_MEMBER_0_MEMBER_12_MEMBER_0_FILL"/>
</g>

<g transform="matrix( 7, 0, 0, 7, -993.5,-1770.15) ">
<use xlink:href="#Layer0_0_MEMBER_0_MEMBER_13_MEMBER_0_FILL"/>
</g>

<g transform="matrix( 7, 0, 0, 7, -993.5,-1770.15) ">
<use xlink:href="#Layer0_0_MEMBER_0_MEMBER_14_MEMBER_0_FILL"/>
</g>

<g transform="matrix( 7, 0, 0, 7, -993.5,-1770.15) ">
<use xlink:href="#Layer0_0_MEMBER_0_MEMBER_15_MEMBER_0_FILL"/>
</g>

<g transform="matrix( 7, 0, 0, 7, -993.5,-1770.15) ">
<use xlink:href="#Layer0_0_MEMBER_0_MEMBER_16_MEMBER_0_FILL"/>
</g>

<g transform="matrix( 7, 0, 0, 7, -993.5,-1770.15) ">
<use xlink:href="#Layer0_0_MEMBER_0_MEMBER_18_MEMBER_0_FILL"/>
</g>

<g transform="matrix( 7, 0, 0, 7, -993.5,-1770.15) ">
<use xlink:href="#Layer0_0_MEMBER_0_MEMBER_19_MEMBER_0_FILL"/>
</g>

<g transform="matrix( 7, 0, 0, 7, -993.5,-1770.15) ">
<use xlink:href="#Layer0_0_MEMBER_0_MEMBER_20_MEMBER_0_FILL"/>
</g>

<g transform="matrix( 7, 0, 0, 7, -993.5,-1770.15) ">
<use xlink:href="#Layer0_0_MEMBER_0_MEMBER_21_MEMBER_0_FILL"/>
</g>

<g transform="matrix( 7, 0, 0, 7, -993.5,-1770.15) ">
<use xlink:href="#Layer0_0_MEMBER_0_MEMBER_22_MEMBER_0_FILL"/>
</g>

<g transform="matrix( 7, 0, 0, 7, -993.5,-1770.15) ">
<use xlink:href="#Layer0_0_MEMBER_0_MEMBER_23_MEMBER_0_FILL"/>
</g>

<g transform="matrix( 7, 0, 0, 7, -993.5,-1770.15) ">
<use xlink:href="#Layer0_0_MEMBER_0_MEMBER_24_FILL"/>
</g>

<g transform="matrix( 7, 0, 0, 7, -993.5,-1770.15) ">
<use xlink:href="#Layer0_0_MEMBER_1_MEMBER_0_MEMBER_0_MEMBER_0_MEMBER_0_MEMBER_0_FILL"/>
</g>

<g transform="matrix( 7, 0, 0, 7, -993.5,-1770.15) ">
<use xlink:href="#Layer0_0_MEMBER_1_MEMBER_0_MEMBER_1_MEMBER_0_MEMBER_0_MEMBER_0_FILL"/>
</g>

<g transform="matrix( 7, 0, 0, 7, -993.5,-1770.15) ">
<use xlink:href="#Layer0_0_MEMBER_1_MEMBER_1_MEMBER_0_MEMBER_0_MEMBER_0_FILL"/>
</g>

<g transform="matrix( 7, 0, 0, 7, -993.5,-1770.15) ">
<use xlink:href="#Layer0_0_MEMBER_1_MEMBER_2_MEMBER_0_MEMBER_0_MEMBER_0_FILL"/>
</g>

<g transform="matrix( 7, 0, 0, 7, -993.5,-1770.15) ">
<use xlink:href="#Layer0_0_MEMBER_1_MEMBER_3_MEMBER_0_MEMBER_0_FILL"/>
</g>

<g transform="matrix( 7, 0, 0, 7, -993.5,-1770.15) ">
<use xlink:href="#Layer0_0_MEMBER_1_MEMBER_4_MEMBER_0_MEMBER_0_MEMBER_0_FILL"/>
</g>

<g transform="matrix( 7, 0, 0, 7, -993.5,-1770.15) ">
<use xlink:href="#Layer0_0_MEMBER_1_MEMBER_5_MEMBER_0_MEMBER_0_MEMBER_0_FILL"/>
</g>

<g transform="matrix( 7, 0, 0, 7, -993.5,-1770.15) ">
<use xlink:href="#Layer0_0_MEMBER_1_MEMBER_6_MEMBER_0_MEMBER_0_MEMBER_0_MEMBER_0_MEMBER_0_FILL"/>
</g>

<g transform="matrix( 7, 0, 0, 7, -993.5,-1770.15) ">
<use xlink:href="#Layer0_0_MEMBER_1_MEMBER_6_MEMBER_1_MEMBER_0_MEMBER_0_MEMBER_0_MEMBER_0_MEMBER_0_FILL"/>
</g>

<g transform="matrix( 7, 0, 0, 7, -993.5,-1770.15) ">
<use xlink:href="#Layer0_0_MEMBER_1_MEMBER_6_MEMBER_1_MEMBER_1_MEMBER_0_MEMBER_0_MEMBER_0_MEMBER_0_FILL"/>
</g>

<g transform="matrix( 7, 0, 0, 7, -993.5,-1770.15) ">
<use xlink:href="#Layer0_0_MEMBER_1_MEMBER_6_MEMBER_1_MEMBER_2_MEMBER_0_MEMBER_0_MEMBER_0_MEMBER_0_FILL"/>
</g>

<g transform="matrix( 7, 0, 0, 7, -993.5,-1770.15) ">
<use xlink:href="#Layer0_0_MEMBER_1_MEMBER_6_MEMBER_1_MEMBER_3_MEMBER_0_MEMBER_0_MEMBER_0_MEMBER_0_FILL"/>
</g>

<g transform="matrix( 7, 0, 0, 7, -993.5,-1770.15) ">
<use xlink:href="#Layer0_0_MEMBER_1_MEMBER_7_MEMBER_0_MEMBER_0_MEMBER_0_MEMBER_0_MEMBER_0_FILL"/>
</g>

<g transform="matrix( 7, 0, 0, 7, -993.5,-1770.15) ">
<use xlink:href="#Layer0_0_MEMBER_1_MEMBER_7_MEMBER_0_MEMBER_1_MEMBER_0_MEMBER_0_MEMBER_0_FILL"/>
</g>

<g transform="matrix( 7, 0, 0, 7, -993.5,-1770.15) ">
<use xlink:href="#Layer0_0_MEMBER_1_MEMBER_7_MEMBER_1_MEMBER_0_MEMBER_0_MEMBER_0_FILL"/>
</g>
</svg>
